<?xml version="1.0" standalone="no"?><svg xmlns="http://www.w3.org/2000/svg" viewBox="0 0 1440 320"><path fill="#273036" fill-opacity="1" d="M0,192L30,202.7C60,213,120,235,180,250.7C240,267,300,277,360,261.3C420,245,480,203,540,197.3C600,192,660,224,720,224C780,224,840,192,900,197.3C960,203,1020,245,1080,250.7C1140,256,1200,224,1260,213.3C1320,203,1380,213,1410,218.7L1440,224L1440,0L1410,0C1380,0,1320,0,1260,0C1200,0,1140,0,1080,0C1020,0,960,0,900,0C840,0,780,0,720,0C660,0,600,0,540,0C480,0,420,0,360,0C300,0,240,0,180,0C120,0,60,0,30,0L0,0Z"></path></svg>